<svg width="82" height="81" viewBox="0 0 82 81" fill="none" xmlns="http://www.w3.org/2000/svg">
<path d="M80.5222 31.6098C81.6445 37.6835 78.8959 36.9239 78.8959 36.9239C76.0143 29.3176 71.4036 30.0271 71.4036 30.0271C75.0133 32.4963 75.2863 34.5966 75.2863 34.5966C65.6706 28.2107 52.597 33.3478 47.6223 35.7602C44.8317 32.0706 39.1897 23.8115 41.1917 20.0651C43.8307 15.155 49.1997 17.9648 49.1997 17.9648C60.059 17.7946 59.4523 14.1617 59.4523 14.1617C56.5706 16.2619 48.0773 14.1617 48.0773 14.1617C55.4483 14.1617 58.5726 11.3519 58.5726 11.3519C53.0823 12.6291 46.955 7.15138 46.955 7.15138C44.7103 -3.60533 34.3364 0.964143 34.3364 0.964143C40.8277 -0.0859836 39.0987 6.35669 39.0987 6.35669C30.9694 9.05296 31.7277 13.367 31.7277 13.367C34.3667 9.98956 36.6114 9.73412 36.6114 9.73412C29.1797 19.5258 36.3384 33.1491 38.4617 36.6968C34.579 39.2228 25.479 44.7857 21.3841 42.8557C16.1364 40.3865 19.1394 35.3629 19.1394 35.3629C19.0181 25.2022 15.1354 25.7698 15.1354 25.7698C17.3801 28.4661 15.1354 36.413 15.1354 36.413C15.1354 29.5162 12.1324 26.5929 12.1324 26.5929C13.4974 31.73 7.64309 37.4631 7.64309 37.4631C-3.85322 39.5634 1.03044 49.27 1.03044 49.27C-0.0918955 43.1963 6.79376 44.814 6.79376 44.814C9.67542 52.4204 14.2861 51.7108 14.2861 51.7108C10.6764 49.2416 10.4034 47.1413 10.4034 47.1413C20.5651 53.8962 34.6094 47.7657 38.856 45.6087C41.7073 49.4403 47.0157 57.3304 45.044 60.9917C42.405 65.9017 37.036 63.0919 37.036 63.0919C26.1767 63.2054 26.7834 66.8383 26.7834 66.8383C29.665 64.7381 38.1584 66.8383 38.1584 66.8383C30.7874 66.8383 27.663 69.6481 27.663 69.6481C33.1534 68.3709 39.2807 73.8486 39.2807 73.8486C41.5253 84.6053 51.8993 80.0359 51.8993 80.0359C45.044 82 47.137 74.6433 47.137 74.6433C55.2663 71.947 54.508 67.633 54.508 67.633C51.869 71.0104 49.6243 71.2659 49.6243 71.2659C56.9043 61.7012 50.2007 48.4469 47.9257 44.5586C52.051 41.8623 60.3926 37.0374 64.245 38.8539C69.4926 41.3231 66.4896 46.3467 66.4896 46.3467C66.611 56.5073 70.4936 55.9397 70.4936 55.9397C68.249 53.2434 70.4936 45.2965 70.4936 45.2965C70.4936 52.1933 73.4966 55.1166 73.4966 55.1166C72.1316 49.9795 80 42 80 42C82.5 40.5 80.5222 31.6098 80.5222 31.6098Z" fill="url(#paint0_linear_1_6)"/>
<defs>
<linearGradient id="paint0_linear_1_6" x1="42.8419" y1="0" x2="42.8419" y2="81" gradientUnits="userSpaceOnUse">
<stop stop-color="#C0B7E8"/>
<stop offset="1" stop-color="#8176AF"/>
</linearGradient>
</defs>
</svg>
